# xmcd CD database file
#
# Track frame offsets:
#	150
#	13804
#	29905
#	47258
#	71176
#	91491
#	105776
#	130474
#	145402
#	165845
#
# Disc length: 2438 seconds
#
# Revision: 0
# Processed by: cddbd v1.5.2PL0 Copyright (c) Steve Scherf et al.
# Submitted via: CDex 1.70beta2
#
DISCID=8409840a
DTITLE=Raful Neal - I Been Mistreated
DYEAR=1991
DGENRE=Blues
TTITLE0=I Been Mistreated
TTITLE1=Down In Louisiana
TTITLE2=Hard Times
TTITLE3=I Miss You Baby
TTITLE4=Man, Watch Your Woman
TTITLE5=Spill It On Me
TTITLE6=Starlight Diamond
TTITLE7=I Have Eyes For You
TTITLE8=Little Red Rooster
TTITLE9=Still In Love With You
EXTD=YEAR: 1991
EXTT0=
EXTT1=
EXTT2=
EXTT3=
EXTT4=
EXTT5=
EXTT6=
EXTT7=
EXTT8=
EXTT9=
PLAYORDER=
